# xmcd
#
# Track frame offsets: 
#        150
#        18200
#        37125
#        58147
#
# Disc length: 1113 seconds
#
# Revision: 2
# Processed by: cddbd v1.5.2PL0 Copyright (c) Steve Scherf et al.
# Submitted via: ExactAudioCopy v1.5
#
DISCID=2f045704
DTITLE=Flip Da Scrip - Everybody Funk Now
DYEAR=1996
DGENRE=Rap
TTITLE0=Everybody Funk Now (Radio Mix)
TTITLE1=Everybody Funk Now (Cooly's Swing Mix)
TTITLE2=Everybody Funk Now (Cooly's Miami Bass Mix)
TTITLE3=Everybody Funk Now (Extended Radio Mix)
EXTD=
EXTT0=
EXTT1=
EXTT2=
EXTT3=
PLAYORDER=
